<svg height="512" viewBox="0 0 512 512" width="512" xmlns="http://www.w3.org/2000/svg"><g id="Count_Down" data-name="Count Down"><g id="Glyph"><path d="m288 48h-64a24 24 0 0 1 0-48h64a24 24 0 0 1 0 48z"/><path d="m414.392 129.608c-1.867-1.867-3.772-3.684-5.692-5.477l19.963-26.769a8 8 0 0 0 -1.63-11.195l-25.65-19.13a8 8 0 0 0 -11.2 1.631l-19.844 26.614a224.63 224.63 0 1 0 44.053 34.326zm-158.392 350.392c-105.869 0-192-86.131-192-192s86.131-192 192-192 192 86.131 192 192-86.131 192-192 192z"/><path d="m408 296h-152a8 8 0 0 1 -8-8v-152a8 8 0 0 1 8-8c88.224 0 160 71.775 160 160a8 8 0 0 1 -8 8z"/><circle cx="201.421" cy="145.912" r="8"/><circle cx="160.185" cy="169.732" r="8"/><circle cx="128.327" cy="205.129" r="8"/><circle cx="108.967" cy="248.638" r="8"/><circle cx="104" cy="296" r="8"/><circle cx="113.912" cy="342.579" r="8"/><circle cx="137.732" cy="383.815" r="8"/><circle cx="173.129" cy="415.673" r="8"/><circle cx="216.638" cy="435.033" r="8"/><circle cx="264" cy="440" r="8"/><circle cx="310.579" cy="430.088" r="8"/><circle cx="351.815" cy="406.268" r="8"/><circle cx="383.673" cy="370.871" r="8"/><circle cx="403.033" cy="327.362" r="8"/></g></g></svg>